<?xml version="1.0" encoding="UTF-8" standalone="no"?>
<!DOCTYPE svg PUBLIC "-//W3C//DTD SVG 1.1//EN" "http://www.w3.org/Graphics/SVG/1.1/DTD/svg11.dtd">
<!-- Created with Vectornator (http://vectornator.io/) -->
<svg height="100%" stroke-miterlimit="10" style="fill-rule:nonzero;clip-rule:evenodd;stroke-linecap:round;stroke-linejoin:round;" version="1.1" viewBox="0 0 1026.1 323" width="100%" xml:space="preserve" xmlns="http://www.w3.org/2000/svg" xmlns:xlink="http://www.w3.org/1999/xlink">
<defs/>
<clipPath id="ArtboardFrame">
<rect height="323" width="1026.1" x="0" y="0"/>
</clipPath>
<g clip-path="url(#ArtboardFrame)" id="Ebene-2">
<path d="M102-5.68434e-14L0 84.7L0 323L1026.1 323L1026.1-5.68434e-14L102-5.68434e-14Z" fill="#000000" fill-rule="nonzero" opacity="1" stroke="none"/>
<path d="M33.3 297.4L33.3 289.2L26.4 289.2L26.4 294.1L31.8 294.1L31.8 297.4L27.2 297.4L27.2 298.8L33.4 298.8L33.3 297.4ZM29.5 292.6L29.5 290.5L31.8 290.5L31.8 292.6L29.5 292.6Z" fill="#ffffff" fill-rule="nonzero" opacity="1" stroke="none"/>
<path d="M41.7 266L43.2 266L43.2 287L41.7 287L41.7 266Z" fill="#ffffff" fill-rule="nonzero" opacity="1" stroke="none"/>
<path d="M39.4 291.6L36.3 291.6L36.3 301.4L43.2 301.4L43.2 291.6L39.4 291.6ZM41.7 299.8L39.4 299.8L39.4 293.1L41.7 293.1L41.7 299.8Z" fill="#ffffff" fill-rule="nonzero" opacity="1" stroke="none"/>
<path d="M46 266L47.5 266L47.5 285.5L46 285.5L46 266Z" fill="#ffffff" fill-rule="nonzero" opacity="1" stroke="none"/>
<path d="M51.4 266L54.5 266L54.5 285.5L51.4 285.5L51.4 266Z" fill="#ffffff" fill-rule="nonzero" opacity="1" stroke="none"/>
<path d="M52.9 289.3L46 289.3L46 298.7L49.1 298.7L49.1 290.8L52.9 290.8L52.9 298.7L54.5 298.7L54.5 289.3L52.9 289.3Z" fill="#ffffff" fill-rule="nonzero" opacity="1" stroke="none"/>
<path d="M57.7 266L60.8 266L60.8 287L57.7 287L57.7 266Z" fill="#ffffff" fill-rule="nonzero" opacity="1" stroke="none"/>
<path d="M63.1 266L64.6 266L64.6 287L63.1 287L63.1 266Z" fill="#ffffff" fill-rule="nonzero" opacity="1" stroke="none"/>
<path d="M63.1 291.6L63.1 295.7L60.8 295.7L60.8 291.6L57.7 291.6L57.7 297.2L63.1 297.2L63.1 301.3L64.7 301.3L64.7 291.6L63.1 291.6Z" fill="#ffffff" fill-rule="nonzero" opacity="1" stroke="none"/>
<path d="M67.7 266L69.2 266L69.2 285.6L67.7 285.6L67.7 266Z" fill="#ffffff" fill-rule="nonzero" opacity="1" stroke="none"/>
<path d="M70.7 293.5L70.7 291L74.5 291L74.5 289.5L67.6 289.5L67.6 294.9L73 294.9L73 297.3L68.4 297.3L68.4 298.7L74.6 298.7L74.6 297.3L74.6 297.3L74.6 293.4L70.7 293.4L70.7 293.5Z" fill="#ffffff" fill-rule="nonzero" opacity="1" stroke="none"/>
<path d="M71.5 265.9L74.6 265.9L74.6 285.5L71.5 285.5L71.5 265.9Z" fill="#ffffff" fill-rule="nonzero" opacity="1" stroke="none"/>
<path d="M26.4 274.2L26.4 285.4L27.9 285.4L27.9 273.4L26.4 274.2Z" fill="#ffffff" fill-rule="nonzero" opacity="1" stroke="none"/>
<path d="M30.2 272.2L30.2 285.4L33.3 285.4L33.3 270.5L30.2 272.2Z" fill="#ffffff" fill-rule="nonzero" opacity="1" stroke="none"/>
<path d="M36.3 268.8L36.3 286.9L39.4 286.9L39.4 267.2L36.3 268.8Z" fill="#ffffff" fill-rule="nonzero" opacity="1" stroke="none"/>
<g opacity="1">
<path d="M110.425 145.538L110.425 144.8C110.425 139.335 111.409 134.047 113.376 128.938C115.344 123.828 118.063 119.469 121.533 115.862C125.003 112.256 129.102 109.4 133.829 107.296C138.557 105.192 143.68 104.14 149.2 104.14C154.665 104.14 159.816 105.192 164.652 107.296C169.489 109.4 173.711 112.256 177.317 115.862C180.924 119.469 183.78 123.828 185.884 128.938C187.988 134.047 189.04 139.335 189.04 144.8C189.04 148.461 188.562 152 187.605 155.416C186.649 158.831 185.31 162.015 183.589 164.966C181.867 167.917 179.79 170.609 177.358 173.041C174.926 175.472 172.235 177.563 169.284 179.312C166.333 181.06 163.163 182.413 159.775 183.369C156.386 184.326 152.861 184.804 149.2 184.804C144.281 184.804 139.868 183.82 135.961 181.853C132.053 179.886 128.542 177.399 125.427 174.393L125.099 204.806C125.044 206.938 124.361 208.727 123.05 210.176C121.738 211.624 120.016 212.348 117.885 212.348C115.808 212.348 114.046 211.624 112.598 210.176C111.149 208.727 110.425 206.938 110.425 204.806L110.425 145.538ZM149.692 169.884C153.135 169.884 156.4 169.215 159.488 167.876C162.575 166.537 165.267 164.72 167.562 162.425C169.858 160.129 171.675 157.451 173.014 154.391C174.353 151.331 175.022 148.052 175.022 144.554C175.022 141.056 174.353 137.818 173.014 134.84C171.675 131.861 169.858 129.143 167.562 126.683C165.267 124.224 162.575 122.38 159.488 121.15C156.4 119.92 153.135 119.305 149.692 119.305C146.249 119.305 143.024 119.961 140.018 121.273C137.013 122.584 134.389 124.497 132.149 127.011C129.908 129.525 128.132 132.285 126.82 135.291C125.509 138.296 124.853 141.521 124.853 144.964C124.853 148.407 125.509 151.645 126.82 154.678C128.132 157.711 129.908 160.348 132.149 162.589C134.389 164.829 137.013 166.605 140.018 167.917C143.024 169.229 146.249 169.884 149.692 169.884Z" fill="#ffffff" fill-rule="nonzero" opacity="1" stroke="none"/>
<path d="M200.271 114.804C200.271 113.657 200.489 112.591 200.926 111.607C201.364 110.624 201.951 109.763 202.689 109.025C203.427 108.287 204.301 107.7 205.312 107.263C206.323 106.825 207.403 106.607 208.55 106.607C209.698 106.607 210.764 106.825 211.747 107.263C212.731 107.7 213.605 108.287 214.37 109.025C215.136 109.763 215.737 110.624 216.174 111.607C216.611 112.591 216.83 113.657 216.83 114.804C216.83 115.952 216.611 117.018 216.174 118.001C215.737 118.985 215.136 119.846 214.37 120.584C213.605 121.321 212.731 121.909 211.747 122.346C210.764 122.783 209.698 123.002 208.55 123.002C207.403 123.002 206.323 122.783 205.312 122.346C204.301 121.909 203.427 121.321 202.689 120.584C201.951 119.846 201.364 118.985 200.926 118.001C200.489 117.018 200.271 115.952 200.271 114.804ZM201.172 139.971C201.172 138.987 201.364 138.045 201.746 137.143C202.129 136.241 202.662 135.462 203.345 134.806C204.028 134.151 204.82 133.631 205.722 133.249C206.624 132.866 207.594 132.675 208.632 132.675C210.654 132.675 212.335 133.386 213.674 134.806C215.013 136.227 215.682 137.949 215.682 139.971L215.682 205.142C215.682 207.164 214.985 208.872 213.592 210.265C212.198 211.659 210.518 212.356 208.55 212.356C206.528 212.356 204.793 211.659 203.345 210.265C201.897 208.872 201.172 207.164 201.172 205.142L201.172 139.971Z" fill="#ffffff" fill-rule="nonzero" opacity="1" stroke="none"/>
<path d="M229.864 172.016L229.864 171.688C229.864 166.387 230.834 161.386 232.774 156.686C234.714 151.986 237.378 147.888 240.767 144.39C244.155 140.892 248.144 138.133 252.735 136.11C257.326 134.088 262.272 133.077 267.573 133.077C272.928 133.077 277.915 134.088 282.533 136.11C287.151 138.133 291.168 140.892 294.584 144.39C297.999 147.888 300.677 151.986 302.617 156.686C304.557 161.386 305.527 166.387 305.527 171.688L305.527 172.098L305.527 205.052C305.527 207.129 304.844 208.837 303.478 210.176C302.112 211.514 300.418 212.184 298.396 212.184C296.374 212.184 294.652 211.514 293.231 210.176C291.81 208.837 291.1 207.129 291.1 205.052L291.1 172.016L291.1 171.852C291.045 168.518 290.417 165.389 289.214 162.466C288.012 159.542 286.359 156.987 284.255 154.801C282.151 152.615 279.678 150.88 276.836 149.595C273.994 148.311 270.906 147.669 267.573 147.669C264.239 147.669 261.165 148.284 258.35 149.514C255.536 150.743 253.09 152.451 251.014 154.637C248.937 156.823 247.311 159.378 246.136 162.302C244.961 165.226 244.374 168.354 244.374 171.688L244.374 205.052C244.374 207.129 243.704 208.837 242.365 210.176C241.026 211.514 239.346 212.184 237.324 212.184C236.34 212.184 235.397 212.006 234.496 211.651C233.594 211.296 232.801 210.804 232.118 210.176C231.435 209.547 230.889 208.796 230.479 207.921C230.069 207.047 229.864 206.09 229.864 205.052L229.864 172.016Z" fill="#ffffff" fill-rule="nonzero" opacity="1" stroke="none"/>
<path d="M357.008 212.435C351.489 212.435 346.324 211.383 341.515 209.279C336.706 207.175 332.511 204.319 328.932 200.712C325.352 197.105 322.524 192.87 320.447 188.006C318.37 183.142 317.332 177.95 317.332 172.43C317.332 166.911 318.37 161.719 320.447 156.855C322.524 151.991 325.352 147.742 328.932 144.108C332.511 140.474 336.706 137.604 341.515 135.5C346.324 133.396 351.489 132.344 357.008 132.344C362.528 132.344 367.679 133.383 372.461 135.459C377.243 137.536 381.41 140.364 384.962 143.944C388.514 147.524 391.329 151.718 393.405 156.527C395.482 161.336 396.575 166.474 396.684 171.939L396.684 172.43L396.684 204.565C396.684 206.642 395.974 208.404 394.553 209.852C393.132 211.301 391.383 212.025 389.307 212.025C387.23 212.025 385.536 211.301 384.224 209.852C382.913 208.404 382.257 206.642 382.257 204.565L382.175 203.417C378.732 206.259 374.879 208.472 370.616 210.057C366.353 211.642 361.817 212.435 357.008 212.435ZM357.008 197.925C360.615 197.925 363.949 197.255 367.009 195.917C370.07 194.578 372.734 192.747 375.002 190.424C377.27 188.102 379.046 185.396 380.33 182.309C381.615 179.221 382.257 175.928 382.257 172.43C382.257 168.933 381.615 165.64 380.33 162.552C379.046 159.465 377.27 156.773 375.002 154.478C372.734 152.182 370.07 150.365 367.009 149.026C363.949 147.687 360.615 147.018 357.008 147.018C353.456 147.018 350.15 147.687 347.089 149.026C344.029 150.365 341.378 152.182 339.138 154.478C336.897 156.773 335.121 159.465 333.809 162.552C332.498 165.64 331.842 168.933 331.842 172.43C331.842 175.928 332.498 179.221 333.809 182.309C335.121 185.396 336.897 188.102 339.138 190.424C341.378 192.747 344.029 194.578 347.089 195.917C350.15 197.255 353.456 197.925 357.008 197.925Z" fill="#ffffff" fill-rule="nonzero" opacity="1" stroke="none"/>
<path d="M407.808 173.199C407.808 167.57 408.846 162.297 410.923 157.378C412.999 152.459 415.855 148.169 419.489 144.508C423.123 140.846 427.386 137.963 432.277 135.859C437.169 133.755 442.429 132.703 448.058 132.703C453.304 132.703 458.291 133.632 463.018 135.491C467.745 137.349 471.831 139.999 475.274 143.442C476.148 144.371 476.804 145.355 477.241 146.393C477.678 147.432 477.897 148.443 477.897 149.426C477.897 150.519 477.651 151.517 477.159 152.418C476.667 153.32 476.052 154.072 475.315 154.673C474.577 155.274 473.784 155.739 472.937 156.066C472.09 156.394 471.311 156.558 470.601 156.558C469.399 156.558 468.251 156.258 467.158 155.657L461.42 151.558C458.96 149.973 456.556 148.894 454.206 148.32C451.856 147.746 449.369 147.459 446.746 147.459C443.358 147.568 440.188 148.333 437.237 149.754C434.286 151.175 431.731 153.047 429.572 155.37C427.413 157.692 425.719 160.356 424.49 163.362C423.26 166.368 422.645 169.483 422.645 172.707C422.645 175.987 423.26 179.156 424.49 182.217C425.719 185.277 427.441 187.969 429.654 190.291C431.867 192.614 434.477 194.486 437.483 195.907C440.489 197.328 443.795 198.038 447.402 198.038C449.861 198.038 452.238 197.751 454.534 197.177C456.829 196.603 459.124 195.524 461.42 193.939L467.158 189.922C467.704 189.649 468.278 189.417 468.879 189.226C469.481 189.034 470.082 188.939 470.683 188.939C471.393 188.939 472.172 189.103 473.019 189.431C473.866 189.758 474.645 190.237 475.356 190.865C476.066 191.494 476.654 192.245 477.118 193.119C477.583 193.994 477.815 194.978 477.815 196.071C477.815 197.109 477.61 198.147 477.2 199.186C476.79 200.224 476.148 201.18 475.274 202.055C471.885 205.498 467.8 208.135 463.018 209.965C458.236 211.796 453.249 212.712 448.058 212.712C442.483 212.712 437.264 211.687 432.4 209.638C427.536 207.588 423.274 204.787 419.612 201.235C415.95 197.683 413.068 193.502 410.964 188.693C408.86 183.884 407.808 178.719 407.808 173.199Z" fill="#ffffff" fill-rule="nonzero" opacity="1" stroke="none"/>
<path d="M614.332 112.01C614.332 109.933 615.015 108.198 616.381 106.804C617.748 105.411 619.414 104.714 621.382 104.714C622.366 104.714 623.308 104.891 624.21 105.247C625.112 105.602 625.904 106.107 626.587 106.763C627.27 107.419 627.817 108.198 628.227 109.099C628.637 110.001 628.842 110.971 628.842 112.01L628.842 184.804C628.842 189.067 629.976 192.332 632.244 194.6C634.512 196.868 637.64 198.002 641.63 198.002C643.707 198.002 645.414 198.699 646.753 200.093C648.092 201.486 648.762 203.167 648.762 205.134C648.762 207.211 648.106 208.919 646.794 210.258C645.483 211.596 643.789 212.266 641.712 212.266C637.832 212.266 634.225 211.61 630.891 210.299C627.557 208.987 624.661 207.115 622.202 204.683C619.742 202.251 617.816 199.355 616.422 195.994C615.029 192.633 614.332 188.903 614.332 184.804L614.332 112.01Z" fill="#ffffff" fill-rule="nonzero" opacity="1" stroke="none"/>
<path d="M694.176 213.168C688.657 213.168 683.492 212.116 678.683 210.012C673.874 207.908 669.679 205.052 666.1 201.445C662.52 197.838 659.692 193.603 657.615 188.739C655.538 183.875 654.5 178.683 654.5 173.164C654.5 167.644 655.538 162.452 657.615 157.588C659.692 152.724 662.52 148.475 666.1 144.841C669.679 141.207 673.874 138.337 678.683 136.233C683.492 134.129 688.657 133.077 694.176 133.077C699.696 133.077 704.847 134.116 709.629 136.192C714.411 138.269 718.578 141.097 722.13 144.677C725.682 148.257 728.497 152.451 730.574 157.26C732.65 162.069 733.743 167.207 733.853 172.672L733.853 173.164L733.853 205.298C733.853 207.375 733.142 209.137 731.721 210.585C730.3 212.034 728.551 212.758 726.475 212.758C724.398 212.758 722.704 212.034 721.392 210.585C720.081 209.137 719.425 207.375 719.425 205.298L719.343 204.15C715.9 206.992 712.047 209.205 707.784 210.79C703.522 212.375 698.986 213.168 694.176 213.168ZM694.176 198.658C697.783 198.658 701.117 197.988 704.177 196.65C707.238 195.311 709.902 193.48 712.17 191.157C714.438 188.835 716.214 186.129 717.498 183.042C718.783 179.954 719.425 176.661 719.425 173.164C719.425 169.666 718.783 166.373 717.498 163.285C716.214 160.198 714.438 157.506 712.17 155.211C709.902 152.915 707.238 151.098 704.177 149.759C701.117 148.42 697.783 147.751 694.176 147.751C690.624 147.751 687.318 148.42 684.257 149.759C681.197 151.098 678.546 152.915 676.306 155.211C674.065 157.506 672.289 160.198 670.977 163.285C669.666 166.373 669.01 169.666 669.01 173.164C669.01 176.661 669.666 179.954 670.977 183.042C672.289 186.129 674.065 188.835 676.306 191.157C678.546 193.48 681.197 195.311 684.257 196.65C687.318 197.988 690.624 198.658 694.176 198.658Z" fill="#ffffff" fill-rule="nonzero" opacity="1" stroke="none"/>
<path d="M745.083 173.164C745.083 167.644 746.135 162.452 748.239 157.588C750.343 152.724 753.213 148.475 756.847 144.841C760.481 141.207 764.716 138.337 769.553 136.233C774.39 134.129 779.568 133.077 785.087 133.077C788.366 133.077 791.318 133.405 793.941 134.061C796.564 134.717 798.9 135.673 800.95 136.93C802.999 138.187 804.816 139.717 806.401 141.521C807.986 143.324 809.38 145.374 810.582 147.669L810.582 111.764C810.582 109.632 811.265 107.843 812.631 106.394C813.998 104.946 815.719 104.222 817.796 104.222C819.872 104.222 821.608 104.946 823.001 106.394C824.395 107.843 825.092 109.632 825.092 111.764L825.092 173.164L825.092 173.655C825.037 179.12 823.958 184.244 821.854 189.026C819.749 193.808 816.894 197.988 813.287 201.568C809.68 205.148 805.458 207.976 800.622 210.053C795.785 212.129 790.607 213.168 785.087 213.168C779.568 213.168 774.39 212.116 769.553 210.012C764.716 207.908 760.481 205.052 756.847 201.445C753.213 197.838 750.343 193.603 748.239 188.739C746.135 183.875 745.083 178.683 745.083 173.164ZM759.593 173.164C759.593 176.661 760.262 179.954 761.601 183.042C762.94 186.129 764.757 188.835 767.053 191.157C769.348 193.48 772.04 195.311 775.127 196.65C778.215 197.988 781.535 198.658 785.087 198.658C788.694 198.658 792.042 197.988 795.129 196.65C798.217 195.311 800.909 193.48 803.204 191.157C805.499 188.835 807.303 186.129 808.614 183.042C809.926 179.954 810.582 176.661 810.582 173.164C810.582 169.666 809.926 166.373 808.614 163.285C807.303 160.198 805.499 157.506 803.204 155.211C800.909 152.915 798.217 151.098 795.129 149.759C792.042 148.42 788.694 147.751 785.087 147.751C781.535 147.751 778.215 148.42 775.127 149.759C772.04 151.098 769.348 152.915 767.053 155.211C764.757 157.506 762.94 160.198 761.601 163.285C760.262 166.373 759.593 169.666 759.593 173.164Z" fill="#ffffff" fill-rule="nonzero" opacity="1" stroke="none"/>
<path d="M875.998 213.168C870.479 213.168 865.314 212.116 860.505 210.012C855.696 207.908 851.501 205.052 847.922 201.445C844.342 197.838 841.514 193.603 839.437 188.739C837.361 183.875 836.322 178.683 836.322 173.164C836.322 167.644 837.361 162.452 839.437 157.588C841.514 152.724 844.342 148.475 847.922 144.841C851.501 141.207 855.696 138.337 860.505 136.233C865.314 134.129 870.479 133.077 875.998 133.077C881.518 133.077 886.669 134.116 891.451 136.192C896.233 138.269 900.4 141.097 903.952 144.677C907.504 148.257 910.319 152.451 912.396 157.26C914.472 162.069 915.565 167.207 915.675 172.672L915.675 173.164L915.675 205.298C915.675 207.375 914.964 209.137 913.543 210.585C912.122 212.034 910.374 212.758 908.297 212.758C906.22 212.758 904.526 212.034 903.214 210.585C901.903 209.137 901.247 207.375 901.247 205.298L901.165 204.15C897.722 206.992 893.869 209.205 889.606 210.79C885.344 212.375 880.808 213.168 875.998 213.168ZM875.998 198.658C879.605 198.658 882.939 197.988 886 196.65C889.06 195.311 891.724 193.48 893.992 191.157C896.26 188.835 898.036 186.129 899.321 183.042C900.605 179.954 901.247 176.661 901.247 173.164C901.247 169.666 900.605 166.373 899.321 163.285C898.036 160.198 896.26 157.506 893.992 155.211C891.724 152.915 889.06 151.098 886 149.759C882.939 148.42 879.605 147.751 875.998 147.751C872.446 147.751 869.14 148.42 866.079 149.759C863.019 151.098 860.368 152.915 858.128 155.211C855.887 157.506 854.111 160.198 852.799 163.285C851.488 166.373 850.832 169.666 850.832 173.164C850.832 176.661 851.488 179.954 852.799 183.042C854.111 186.129 855.887 188.835 858.128 191.157C860.368 193.48 863.019 195.311 866.079 196.65C869.14 197.988 872.446 198.658 875.998 198.658Z" fill="#ffffff" fill-rule="nonzero" opacity="1" stroke="none"/>
<g opacity="1">
<path d="M510.77 80.5305C499.667 78.6446 497.217 91.6186 505.743 94.3021C509.113 95.3626 519.969 97.0969 523.765 98.8559C527.472 100.573 529.713 102.54 531.106 105.638C532.499 108.737 533.197 112.297 534.121 115.857C529.295 116.852 523.905 117.577 518.811 119.017C513.718 120.457 508.92 122.612 505.279 126.469C499.79 132.283 495.679 139.272 493.207 146.798C490.735 154.323 489.902 162.385 490.969 170.345C492.804 184.047 499.556 195.819 509.279 204.128C519.002 212.437 531.697 217.284 545.421 217.135C562.917 216.944 577.298 208.939 586.541 196.827C595.784 184.715 599.888 168.496 596.828 151.876C596.563 150.438 596.212 149.008 595.774 147.607C595.335 146.206 594.807 144.832 594.188 143.507C593.105 141.189 591.983 138.874 590.752 136.623C589.521 134.372 588.182 132.185 586.666 130.124C584.5 127.177 581.618 124.729 578.392 122.788C575.166 120.847 571.597 119.413 568.057 118.497C565.223 117.764 562.326 117.336 559.423 116.933C556.519 116.53 553.651 115.916 550.752 115.521C548.868 115.264 546.931 114.974 546.917 114.928C546.515 113.559 546.148 112.293 545.807 111.078C545.068 108.443 544.455 106.047 543.877 103.351C543.034 99.4111 542.582 95.2033 540.281 92.0424C539.401 90.8335 535.467 88.8298 532.709 87.878C526.332 85.6771 532.735 87.8632 526.313 85.6204C521.98 84.1071 516.574 82.3156 510.77 80.5305ZM569.283 127.456C568.149 128.294 566.958 129.057 565.682 129.559C564.822 129.897 563.949 130.208 563.067 130.488C562.185 130.767 561.293 131.015 560.394 131.227C555.095 132.475 551.166 132.127 551.121 132.036C550.045 129.876 548.921 125.053 547.681 120.095C552.289 120.606 556.292 121.165 560.25 121.917C564.207 122.669 568.118 123.613 572.541 124.897C571.495 125.703 570.418 126.617 569.283 127.456ZM519.126 123.926C520.155 123.603 521.186 123.289 522.229 123.017C523.354 122.724 524.486 122.46 525.621 122.212C526.757 121.965 527.896 121.734 529.036 121.507C531.185 121.081 533.954 120.682 535.081 120.555C535.165 120.546 535.639 121.938 536.196 124.191C536.537 125.574 536.85 126.963 537.157 128.353C537.463 129.744 537.763 131.136 538.076 132.525C533.559 132.073 529.863 131.534 526.39 130.424C522.918 129.313 519.668 127.632 516.041 124.897C517.072 124.584 518.098 124.25 519.126 123.926ZM503.17 137.355C506.238 132.314 509.563 128.989 511.521 126.875C515.235 130.308 519.159 132.839 523.433 134.535C527.706 136.231 532.329 137.093 537.44 137.186C545.32 137.331 552.137 137.469 558.511 136.249C564.885 135.028 570.816 132.449 576.92 127.157C578.845 129.183 582.276 134.997 585.29 141.224C588.303 147.45 590.899 154.089 591.155 157.763C591.411 161.438 590.111 161.253 587.88 160.411C585.648 159.568 582.485 158.068 579.012 159.113C575.54 160.159 573.115 161.564 570.817 162.882C568.518 164.2 566.345 165.43 563.376 166.124C560.224 166.862 557.128 166.226 554.028 165.406C550.928 164.586 547.825 163.582 544.66 163.582C541.711 163.582 538.793 164.507 535.879 165.314C532.966 166.121 530.058 166.81 527.127 166.336C523.974 165.827 521.703 163.895 519.259 161.833C516.816 159.772 514.199 157.581 510.354 156.554C506.509 155.528 502.983 156.212 500.433 157.006C497.882 157.801 496.309 158.706 496.369 158.122C497.293 149.149 500.102 142.395 503.17 137.355Z" fill="#ffffff" fill-rule="nonzero" opacity="1" stroke="none"/>
<path d="M447.626 78.7076C445.541 91.5659 447.552 104.164 453.874 115.845C456.266 120.264 464.103 123.182 466.843 117.035C469.562 110.936 465.393 107.774 463.439 101.58C459.915 90.4033 460.88 77.2399 466.204 66.7617C469.038 61.186 473.833 55.4089 478.522 51.3932C481.654 48.7105 488.154 46.7693 489.165 41.7919C489.736 38.9845 488.921 37.3911 486.953 35.1218C485.194 33.0937 481.18 32.986 479.028 34.1046C475.966 35.6966 473.062 37.61 470.319 39.7053C457.458 49.5314 450.154 63.1074 447.626 78.7076Z" fill="#ffffff" fill-rule="nonzero" opacity="1" stroke="none"/>
<path d="M475.185 83.4835C473.631 91.6953 474.941 99.5886 478.902 107.159C481.323 111.786 488.207 112.962 491.413 108.44C494.311 104.353 491.777 101.128 490.408 96.9808C488.945 92.5512 489.266 87.143 490.51 82.7162C491.78 78.1982 494.7 73.942 498.42 71.0949C501.526 68.7185 504.66 67.929 505.522 63.928C506.517 59.3123 501.999 53.2386 496.784 55.1439C495.313 55.6817 493.942 56.4829 492.622 57.3279C482.759 63.6443 477.305 72.2794 475.185 83.4835Z" fill="#ffffff" fill-rule="nonzero" opacity="1" stroke="none"/>
</g>
</g>
</g>
</svg>
