<?xml version="1.0" encoding="UTF-8" standalone="no"?>
<!DOCTYPE svg PUBLIC "-//W3C//DTD SVG 1.1//EN" "http://www.w3.org/Graphics/SVG/1.1/DTD/svg11.dtd">
<!-- Created with Vectornator (http://vectornator.io/) -->
<svg height="100%" stroke-miterlimit="10" style="fill-rule:nonzero;clip-rule:evenodd;stroke-linecap:round;stroke-linejoin:round;" version="1.1" viewBox="0 0 1024 1024" width="100%" xml:space="preserve" xmlns="http://www.w3.org/2000/svg" xmlns:xlink="http://www.w3.org/1999/xlink">
<defs/>
<g id="Ebene-1">
<g opacity="1">
<path d="M449.608 270.583C389.691 260.405 376.47 330.419 422.484 344.901C440.668 350.624 499.251 359.983 519.739 369.476C539.743 378.744 551.835 389.354 559.354 406.077C566.872 422.8 570.637 442.009 575.624 461.224C549.58 466.594 520.493 470.504 493.005 478.275C465.517 486.047 439.628 497.678 419.98 518.489C390.356 549.865 368.172 587.582 354.833 628.194C341.493 668.806 336.998 712.313 342.753 755.267C352.659 829.209 389.092 892.737 441.563 937.578C494.034 982.418 562.544 1008.57 636.605 1007.77C731.02 1006.74 808.63 963.541 858.509 898.178C908.387 832.815 930.534 745.287 914.021 655.601C912.592 647.839 910.701 640.123 908.332 632.56C905.963 624.998 903.117 617.588 899.776 610.437C893.932 597.926 887.875 585.433 881.233 573.285C874.591 561.138 867.366 549.337 859.186 538.213C847.494 522.312 831.941 509.098 814.533 498.624C797.126 488.149 777.864 480.413 758.758 475.469C743.469 471.512 727.833 469.201 712.164 467.027C696.495 464.853 681.021 461.543 665.373 459.408C655.204 458.02 644.752 456.455 644.68 456.21C642.508 448.818 640.527 441.988 638.69 435.434C634.702 421.21 631.391 408.284 628.275 393.731C623.723 372.472 621.283 349.765 608.866 332.707C604.118 326.183 582.889 315.37 568.004 310.233C533.589 298.356 568.143 310.154 533.488 298.05C510.107 289.884 480.93 280.216 449.608 270.583ZM765.378 523.815C759.257 528.34 752.827 532.456 745.942 535.163C741.301 536.988 736.594 538.668 731.833 540.177C727.073 541.686 722.259 543.025 717.405 544.168C688.811 550.901 667.61 549.026 667.365 548.535C661.557 536.877 655.491 510.85 648.801 484.092C673.668 486.852 695.273 489.867 716.628 493.924C737.983 497.981 759.089 503.08 782.96 510.009C777.311 514.354 771.499 519.289 765.378 523.815ZM494.706 504.768C500.256 503.021 505.822 501.33 511.451 499.861C517.519 498.278 523.626 496.853 529.755 495.517C535.883 494.182 542.032 492.936 548.183 491.715C559.778 489.411 574.723 487.258 580.804 486.576C581.26 486.525 583.816 494.036 586.82 506.198C588.662 513.657 590.353 521.153 592.007 528.657C593.66 536.162 595.276 543.675 596.967 551.171C572.589 548.733 552.647 545.822 533.906 539.831C515.165 533.839 497.626 524.768 478.054 510.009C483.621 508.318 489.155 506.515 494.706 504.768ZM408.597 577.234C425.151 550.034 443.099 532.088 453.662 520.68C473.707 539.206 494.884 552.865 517.945 562.019C541.006 571.172 565.952 575.82 593.537 576.326C636.058 577.104 672.85 577.851 707.247 571.265C741.645 564.678 773.648 550.759 806.59 522.205C816.979 533.135 835.493 564.511 851.755 598.113C868.017 631.714 882.028 667.54 883.408 687.37C884.789 707.201 877.776 706.202 865.734 701.656C853.692 697.11 836.62 689.016 817.881 694.656C799.143 700.295 786.058 707.88 773.652 714.992C761.246 722.103 749.52 728.742 733.499 732.489C716.49 736.468 699.781 733.038 683.053 728.613C666.326 724.188 649.58 718.769 632.499 718.769C616.582 718.769 600.834 723.762 585.113 728.117C569.391 732.472 553.696 736.188 537.884 733.633C520.868 730.883 508.612 720.457 495.424 709.333C482.235 698.209 468.114 686.387 447.365 680.846C426.616 675.305 407.586 678.996 393.825 683.285C380.063 687.573 371.57 692.458 371.895 689.305C376.882 640.885 392.042 604.433 408.597 577.234Z" fill="#00f955" fill-rule="nonzero" opacity="1" stroke="none"/>
<path d="M108.852 260.745C97.6041 330.135 108.454 398.123 142.573 461.155C155.481 485.002 197.77 500.751 212.559 467.577C227.231 434.664 204.731 417.605 194.19 384.176C175.17 323.861 180.377 252.825 209.112 196.279C224.403 166.19 250.28 135.014 275.584 113.343C292.488 98.8661 327.562 88.3902 333.021 61.5298C336.1 46.3794 331.703 37.7809 321.083 25.5345C311.591 14.5897 289.928 14.0085 278.315 20.0454C261.789 28.6363 246.119 38.9621 231.319 50.2695C161.913 103.296 122.499 176.559 108.852 260.745Z" fill="#00f955" fill-rule="nonzero" opacity="1" stroke="none"/>
<path d="M257.575 286.518C249.188 330.833 256.259 373.43 277.634 414.283C290.7 439.255 327.847 445.599 345.151 421.195C360.787 399.142 347.113 381.738 339.725 359.357C331.834 335.452 333.566 306.267 340.28 282.378C347.131 257.996 362.886 235.028 382.966 219.663C399.726 206.839 416.639 202.579 421.291 180.987C426.657 156.079 402.275 123.302 374.137 133.584C366.196 136.486 358.796 140.81 351.676 145.37C298.451 179.456 269.019 226.055 257.575 286.518Z" fill="#00f955" fill-rule="nonzero" opacity="1" stroke="none"/>
</g>
</g>
</svg>
