<?xml version="1.0" encoding="UTF-8" standalone="no"?>
<!DOCTYPE svg PUBLIC "-//W3C//DTD SVG 1.1//EN" "http://www.w3.org/Graphics/SVG/1.1/DTD/svg11.dtd">
<!-- Created with Vectornator (http://vectornator.io/) -->
<svg height="100%" stroke-miterlimit="10" style="fill-rule:nonzero;clip-rule:evenodd;stroke-linecap:round;stroke-linejoin:round;" version="1.1" viewBox="0 0 5180.79 1335.57" width="100%" xml:space="preserve" xmlns="http://www.w3.org/2000/svg" xmlns:xlink="http://www.w3.org/1999/xlink">
<defs/>
<g id="Ebene-1">
<g opacity="1">
<path d="M43.0364 796.039L43.0364 791.371C43.0364 756.794 49.2602 723.341 61.7078 691.012C74.1554 658.683 91.3573 631.108 113.314 608.287C135.27 585.467 161.202 567.4 191.111 554.088C221.02 540.776 253.436 534.12 288.358 534.12C322.935 534.12 355.523 540.776 386.124 554.088C416.724 567.4 443.435 585.467 466.255 608.287C489.076 631.108 507.142 658.683 520.454 691.012C533.766 723.341 540.422 756.794 540.422 791.371C540.422 814.537 537.397 836.926 531.346 858.536C525.295 880.147 516.824 900.287 505.932 918.959C495.04 937.63 481.901 954.659 466.515 970.046C451.128 985.433 434.099 998.658 415.427 1009.72C396.756 1020.79 376.702 1029.35 355.264 1035.4C333.826 1041.45 311.524 1044.47 288.358 1044.47C257.239 1044.47 229.318 1038.25 204.596 1025.8C179.874 1013.35 157.658 997.621 137.949 978.604L135.875 1171.02C135.529 1184.51 131.207 1195.83 122.909 1204.99C114.61 1214.16 103.718 1218.74 90.2336 1218.74C77.0944 1218.74 65.9434 1214.16 56.7806 1204.99C47.6178 1195.83 43.0364 1184.51 43.0364 1171.02L43.0364 796.039ZM291.47 950.078C313.253 950.078 333.913 945.842 353.449 937.371C372.985 928.9 390.014 917.403 404.536 902.881C419.058 888.359 430.555 871.416 439.026 852.053C447.497 832.69 451.733 811.944 451.733 789.815C451.733 767.686 447.497 747.199 439.026 728.355C430.555 709.511 419.058 692.309 404.536 676.749C390.014 661.19 372.985 649.52 353.449 641.74C333.913 633.96 313.253 630.071 291.47 630.071C269.687 630.071 249.286 634.22 230.269 642.518C211.252 650.817 194.655 662.918 180.479 678.824C166.302 694.729 155.065 712.19 146.766 731.207C138.468 750.225 134.319 770.625 134.319 792.408C134.319 814.191 138.468 834.678 146.766 853.868C155.065 873.058 166.302 889.742 180.479 903.918C194.655 918.094 211.252 929.332 230.269 937.63C249.286 945.929 269.687 950.078 291.47 950.078Z" fill="#00f955" fill-rule="nonzero" opacity="1" stroke="none"/>
<path d="M611.477 601.593C611.477 594.332 612.86 587.589 615.627 581.365C618.393 575.142 622.11 569.696 626.778 565.028C631.445 560.36 636.978 556.643 643.374 553.877C649.771 551.111 656.6 549.728 663.861 549.728C671.122 549.728 677.865 551.111 684.088 553.877C690.312 556.643 695.845 560.36 700.685 565.028C705.526 569.696 709.329 575.142 712.096 581.365C714.862 587.589 716.245 594.332 716.245 601.593C716.245 608.854 714.862 615.596 712.096 621.82C709.329 628.044 705.526 633.49 700.685 638.158C695.845 642.826 690.312 646.543 684.088 649.309C677.865 652.075 671.122 653.458 663.861 653.458C656.6 653.458 649.771 652.075 643.374 649.309C636.978 646.543 631.445 642.826 626.778 638.158C622.11 633.49 618.393 628.044 615.627 621.82C612.86 615.596 611.477 608.854 611.477 601.593ZM617.183 760.819C617.183 754.595 618.393 748.63 620.813 742.925C623.233 737.22 626.605 732.293 630.927 728.144C635.249 723.994 640.262 720.71 645.968 718.289C651.673 715.869 657.81 714.659 664.38 714.659C677.173 714.659 687.805 719.154 696.277 728.144C704.748 737.134 708.984 748.025 708.984 760.819L708.984 1173.15C708.984 1185.94 704.575 1196.74 695.758 1205.56C686.941 1214.38 676.309 1218.79 663.861 1218.79C651.068 1218.79 640.09 1214.38 630.927 1205.56C621.764 1196.74 617.183 1185.94 617.183 1173.15L617.183 760.819Z" fill="#00f955" fill-rule="nonzero" opacity="1" stroke="none"/>
<path d="M798.71 963.563L798.71 961.488C798.71 927.949 804.848 896.311 817.122 866.575C829.397 836.839 846.253 810.907 867.691 788.778C889.128 766.649 914.369 749.187 943.414 736.394C972.458 723.601 1003.75 717.204 1037.29 717.204C1071.17 717.204 1102.73 723.601 1131.94 736.394C1161.16 749.187 1186.57 766.649 1208.18 788.778C1229.8 810.907 1246.74 836.839 1259.01 866.575C1271.29 896.311 1277.42 927.949 1277.42 961.488L1277.42 964.082L1277.42 1172.58C1277.42 1185.72 1273.1 1196.52 1264.46 1204.99C1255.81 1213.47 1245.1 1217.7 1232.3 1217.7C1219.51 1217.7 1208.62 1213.47 1199.63 1204.99C1190.64 1196.52 1186.14 1185.72 1186.14 1172.58L1186.14 963.563L1186.14 962.526C1185.8 941.434 1181.82 921.639 1174.21 903.14C1166.61 884.642 1156.15 868.477 1142.83 854.646C1129.52 840.816 1113.88 829.837 1095.9 821.712C1077.92 813.586 1058.38 809.524 1037.29 809.524C1016.2 809.524 996.748 813.414 978.941 821.193C961.134 828.973 945.661 839.778 932.522 853.609C919.383 867.44 909.096 883.604 901.662 902.103C894.228 920.601 890.511 940.396 890.511 961.488L890.511 1172.58C890.511 1185.72 886.276 1196.52 877.804 1204.99C869.333 1213.47 858.701 1217.7 845.907 1217.7C839.684 1217.7 833.719 1216.58 828.014 1214.33C822.309 1212.08 817.295 1208.97 812.973 1204.99C808.651 1201.02 805.193 1196.26 802.6 1190.73C800.007 1185.2 798.71 1179.15 798.71 1172.58L798.71 963.563Z" fill="#00f955" fill-rule="nonzero" opacity="1" stroke="none"/>
<path d="M1603.14 1219.29C1568.21 1219.29 1535.54 1212.63 1505.11 1199.32C1474.68 1186.01 1448.15 1167.94 1425.5 1145.12C1402.85 1122.3 1384.96 1095.5 1371.82 1064.73C1358.68 1033.96 1352.11 1001.11 1352.11 966.186C1352.11 931.264 1358.68 898.416 1371.82 867.643C1384.96 836.869 1402.85 809.986 1425.5 786.992C1448.15 763.999 1474.68 745.846 1505.11 732.534C1535.54 719.222 1568.21 712.566 1603.14 712.566C1638.06 712.566 1670.65 719.136 1700.9 732.275C1731.16 745.414 1757.52 763.307 1780 785.955C1802.47 808.603 1820.28 835.141 1833.42 865.568C1846.56 895.996 1853.47 928.498 1854.16 963.074L1854.16 966.186L1854.16 1169.5C1854.16 1182.64 1849.67 1193.79 1840.68 1202.95C1831.69 1212.11 1820.62 1216.69 1807.49 1216.69C1794.35 1216.69 1783.63 1212.11 1775.33 1202.95C1767.03 1193.79 1762.88 1182.64 1762.88 1169.5L1762.36 1162.24C1740.58 1180.22 1716.2 1194.22 1689.23 1204.25C1662.26 1214.27 1633.56 1219.29 1603.14 1219.29ZM1603.14 1127.49C1625.96 1127.49 1647.05 1123.25 1666.41 1114.78C1685.78 1106.31 1702.63 1094.73 1716.98 1080.03C1731.33 1065.33 1742.57 1048.22 1750.69 1028.68C1758.82 1009.15 1762.88 988.315 1762.88 966.186C1762.88 944.057 1758.82 923.225 1750.69 903.689C1742.57 884.153 1731.33 867.124 1716.98 852.602C1702.63 838.08 1685.78 826.583 1666.41 818.111C1647.05 809.64 1625.96 805.405 1603.14 805.405C1580.66 805.405 1559.74 809.64 1540.38 818.111C1521.02 826.583 1504.25 838.08 1490.07 852.602C1475.89 867.124 1464.66 884.153 1456.36 903.689C1448.06 923.225 1443.91 944.057 1443.91 966.186C1443.91 988.315 1448.06 1009.15 1456.36 1028.68C1464.66 1048.22 1475.89 1065.33 1490.07 1080.03C1504.25 1094.73 1521.02 1106.31 1540.38 1114.78C1559.74 1123.25 1580.66 1127.49 1603.14 1127.49Z" fill="#00f955" fill-rule="nonzero" opacity="1" stroke="none"/>
<path d="M1924.54 971.051C1924.54 935.437 1931.11 902.07 1944.25 870.951C1957.39 839.832 1975.45 812.689 1998.45 789.523C2021.44 766.357 2048.41 748.117 2079.36 734.805C2110.3 721.493 2143.58 714.837 2179.2 714.837C2212.39 714.837 2243.94 720.715 2273.85 732.471C2303.76 744.227 2329.6 760.997 2351.39 782.781C2356.92 788.659 2361.07 794.882 2363.84 801.452C2366.6 808.022 2367.98 814.418 2367.98 820.642C2367.98 827.557 2366.43 833.868 2363.32 839.573C2360.2 845.278 2356.32 850.032 2351.65 853.836C2346.98 857.639 2341.97 860.578 2336.61 862.653C2331.25 864.727 2326.32 865.765 2321.82 865.765C2314.22 865.765 2306.96 863.863 2300.04 860.059L2263.74 834.127C2248.18 824.1 2232.96 817.271 2218.09 813.64C2203.23 810.01 2187.49 808.194 2170.9 808.194C2149.46 808.886 2129.41 813.727 2110.73 822.717C2092.06 831.707 2075.9 843.549 2062.24 858.244C2048.58 872.939 2037.86 889.795 2030.08 908.813C2022.3 927.83 2018.41 947.539 2018.41 967.939C2018.41 988.685 2022.3 1008.74 2030.08 1028.1C2037.86 1047.47 2048.76 1064.49 2062.76 1079.19C2076.76 1093.88 2093.27 1105.73 2112.29 1114.72C2131.31 1123.71 2152.23 1128.2 2175.05 1128.2C2190.61 1128.2 2205.65 1126.39 2220.17 1122.76C2234.69 1119.13 2249.21 1112.3 2263.74 1102.27L2300.04 1076.86C2303.5 1075.13 2307.13 1073.66 2310.93 1072.45C2314.74 1071.24 2318.54 1070.63 2322.34 1070.63C2326.84 1070.63 2331.77 1071.67 2337.12 1073.74C2342.48 1075.82 2347.41 1078.84 2351.91 1082.82C2356.4 1086.8 2360.12 1091.55 2363.06 1097.08C2366 1102.62 2367.47 1108.84 2367.47 1115.75C2367.47 1122.32 2366.17 1128.89 2363.58 1135.46C2360.98 1142.03 2356.92 1148.08 2351.39 1153.62C2329.95 1175.4 2304.1 1192.08 2273.85 1203.67C2243.59 1215.25 2212.04 1221.04 2179.2 1221.04C2143.93 1221.04 2110.91 1214.56 2080.13 1201.59C2049.36 1188.62 2022.39 1170.9 1999.22 1148.43C1976.06 1125.95 1957.82 1099.5 1944.51 1069.08C1931.19 1038.65 1924.54 1005.97 1924.54 971.051Z" fill="#00f955" fill-rule="nonzero" opacity="1" stroke="none"/>
<path d="M3231.19 583.911C3231.19 570.771 3235.52 559.793 3244.16 550.976C3252.8 542.159 3263.35 537.751 3275.8 537.751C3282.02 537.751 3287.99 538.874 3293.69 541.122C3299.4 543.369 3304.41 546.568 3308.73 550.717C3313.05 554.866 3316.51 559.793 3319.1 565.499C3321.7 571.204 3322.99 577.341 3322.99 583.911L3322.99 1044.47C3322.99 1071.44 3330.17 1092.1 3344.52 1106.45C3358.87 1120.8 3378.66 1127.98 3403.9 1127.98C3417.04 1127.98 3427.85 1132.38 3436.32 1141.2C3444.79 1150.02 3449.03 1160.65 3449.03 1173.1C3449.03 1186.24 3444.88 1197.04 3436.58 1205.51C3428.28 1213.98 3417.56 1218.22 3404.42 1218.22C3379.87 1218.22 3357.05 1214.07 3335.96 1205.77C3314.87 1197.47 3296.54 1185.63 3280.98 1170.25C3265.42 1154.86 3253.24 1136.53 3244.42 1115.27C3235.6 1094 3231.19 1070.4 3231.19 1044.47L3231.19 583.911Z" fill="#00f955" fill-rule="nonzero" opacity="1" stroke="none"/>
<path d="M3736.36 1223.93C3701.44 1223.93 3668.76 1217.27 3638.33 1203.96C3607.91 1190.65 3581.37 1172.58 3558.72 1149.76C3536.07 1126.94 3518.18 1100.14 3505.04 1069.37C3491.9 1038.59 3485.33 1005.75 3485.33 970.824C3485.33 935.901 3491.9 903.054 3505.04 872.28C3518.18 841.507 3536.07 814.624 3558.72 791.63C3581.37 768.637 3607.91 750.484 3638.33 737.172C3668.76 723.86 3701.44 717.204 3736.36 717.204C3771.28 717.204 3803.87 723.773 3834.12 736.913C3864.38 750.052 3890.74 767.945 3913.22 790.593C3935.69 813.241 3953.5 839.778 3966.64 870.206C3979.78 900.633 3986.69 933.135 3987.39 967.712L3987.39 970.824L3987.39 1174.13C3987.39 1187.27 3982.89 1198.43 3973.9 1207.59C3964.91 1216.75 3953.85 1221.33 3940.71 1221.33C3927.57 1221.33 3916.85 1216.75 3908.55 1207.59C3900.25 1198.43 3896.1 1187.27 3896.1 1174.13L3895.58 1166.87C3873.8 1184.85 3849.42 1198.86 3822.46 1208.88C3795.49 1218.91 3766.79 1223.93 3736.36 1223.93ZM3736.36 1132.12C3759.18 1132.12 3780.27 1127.89 3799.63 1119.42C3819 1110.95 3835.85 1099.36 3850.2 1084.67C3864.55 1069.97 3875.79 1052.86 3883.92 1033.32C3892.04 1013.79 3896.1 992.953 3896.1 970.824C3896.1 948.695 3892.04 927.862 3883.92 908.327C3875.79 888.791 3864.55 871.762 3850.2 857.239C3835.85 842.717 3819 831.221 3799.63 822.749C3780.27 814.278 3759.18 810.042 3736.36 810.042C3713.88 810.042 3692.97 814.278 3673.6 822.749C3654.24 831.221 3637.47 842.717 3623.29 857.239C3609.12 871.762 3597.88 888.791 3589.58 908.327C3581.28 927.862 3577.13 948.695 3577.13 970.824C3577.13 992.953 3581.28 1013.79 3589.58 1033.32C3597.88 1052.86 3609.12 1069.97 3623.29 1084.67C3637.47 1099.36 3654.24 1110.95 3673.6 1119.42C3692.97 1127.89 3713.88 1132.12 3736.36 1132.12Z" fill="#00f955" fill-rule="nonzero" opacity="1" stroke="none"/>
<path d="M4058.44 970.824C4058.44 935.901 4065.1 903.054 4078.41 872.28C4091.72 841.507 4109.87 814.624 4132.87 791.63C4155.86 768.637 4182.66 750.484 4213.26 737.172C4243.86 723.86 4276.62 717.204 4311.54 717.204C4332.29 717.204 4350.96 719.278 4367.56 723.428C4384.15 727.577 4398.94 733.628 4411.9 741.58C4424.87 749.533 4436.36 759.215 4446.39 770.625C4456.42 782.035 4465.24 795.001 4472.84 809.524L4472.84 582.355C4472.84 568.87 4477.16 557.546 4485.81 548.383C4494.45 539.22 4505.34 534.639 4518.48 534.639C4531.62 534.639 4542.6 539.22 4551.42 548.383C4560.24 557.546 4564.64 568.87 4564.64 582.355L4564.64 970.824L4564.64 973.936C4564.3 1008.51 4557.47 1040.93 4544.16 1071.18C4530.85 1101.44 4512.78 1127.89 4489.96 1150.54C4467.14 1173.18 4440.43 1191.08 4409.83 1204.22C4379.23 1217.36 4346.47 1223.93 4311.54 1223.93C4276.62 1223.93 4243.86 1217.27 4213.26 1203.96C4182.66 1190.65 4155.86 1172.58 4132.87 1149.76C4109.87 1126.94 4091.72 1100.14 4078.41 1069.37C4065.1 1038.59 4058.44 1005.75 4058.44 970.824ZM4150.24 970.824C4150.24 992.953 4154.48 1013.79 4162.95 1033.32C4171.42 1052.86 4182.92 1069.97 4197.44 1084.67C4211.96 1099.36 4228.99 1110.95 4248.53 1119.42C4268.06 1127.89 4289.07 1132.12 4311.54 1132.12C4334.36 1132.12 4355.54 1127.89 4375.08 1119.42C4394.61 1110.95 4411.64 1099.36 4426.16 1084.67C4440.69 1069.97 4452.1 1052.86 4460.4 1033.32C4468.69 1013.79 4472.84 992.953 4472.84 970.824C4472.84 948.695 4468.69 927.862 4460.4 908.327C4452.1 888.791 4440.69 871.762 4426.16 857.239C4411.64 842.717 4394.61 831.221 4375.08 822.749C4355.54 814.278 4334.36 810.042 4311.54 810.042C4289.07 810.042 4268.06 814.278 4248.53 822.749C4228.99 831.221 4211.96 842.717 4197.44 857.239C4182.92 871.762 4171.42 888.791 4162.95 908.327C4154.48 927.862 4150.24 948.695 4150.24 970.824Z" fill="#00f955" fill-rule="nonzero" opacity="1" stroke="none"/>
<path d="M4886.73 1223.93C4851.8 1223.93 4819.13 1217.27 4788.7 1203.96C4758.27 1190.65 4731.74 1172.58 4709.09 1149.76C4686.44 1126.94 4668.55 1100.14 4655.41 1069.37C4642.27 1038.59 4635.7 1005.75 4635.7 970.824C4635.7 935.901 4642.27 903.054 4655.41 872.28C4668.55 841.507 4686.44 814.624 4709.09 791.63C4731.74 768.637 4758.27 750.484 4788.7 737.172C4819.13 723.86 4851.8 717.204 4886.73 717.204C4921.65 717.204 4954.24 723.773 4984.49 736.913C5014.75 750.052 5041.11 767.945 5063.59 790.593C5086.06 813.241 5103.87 839.778 5117.01 870.206C5130.15 900.633 5137.06 933.135 5137.75 967.712L5137.75 970.824L5137.75 1174.13C5137.75 1187.27 5133.26 1198.43 5124.27 1207.59C5115.28 1216.75 5104.21 1221.33 5091.07 1221.33C5077.94 1221.33 5067.22 1216.75 5058.92 1207.59C5050.62 1198.43 5046.47 1187.27 5046.47 1174.13L5045.95 1166.87C5024.17 1184.85 4999.79 1198.86 4972.82 1208.88C4945.85 1218.91 4917.15 1223.93 4886.73 1223.93ZM4886.73 1132.12C4909.55 1132.12 4930.64 1127.89 4950 1119.42C4969.36 1110.95 4986.22 1099.36 5000.57 1084.67C5014.92 1069.97 5026.16 1052.86 5034.28 1033.32C5042.41 1013.79 5046.47 992.953 5046.47 970.824C5046.47 948.695 5042.41 927.862 5034.28 908.327C5026.16 888.791 5014.92 871.762 5000.57 857.239C4986.22 842.717 4969.36 831.221 4950 822.749C4930.64 814.278 4909.55 810.042 4886.73 810.042C4864.25 810.042 4843.33 814.278 4823.97 822.749C4804.61 831.221 4787.84 842.717 4773.66 857.239C4759.48 871.762 4748.25 888.791 4739.95 908.327C4731.65 927.862 4727.5 948.695 4727.5 970.824C4727.5 992.953 4731.65 1013.79 4739.95 1033.32C4748.25 1052.86 4759.48 1069.97 4773.66 1084.67C4787.84 1099.36 4804.61 1110.95 4823.97 1119.42C4843.33 1127.89 4864.25 1132.12 4886.73 1132.12Z" fill="#00f955" fill-rule="nonzero" opacity="1" stroke="none"/>
<g opacity="1">
<path d="M2575.97 384.746C2505.72 372.814 2490.22 454.899 2544.17 471.877C2565.49 478.587 2634.17 489.559 2658.19 500.689C2681.64 511.555 2695.82 523.995 2704.63 543.601C2713.45 563.206 2717.86 585.727 2723.71 608.255C2693.17 614.55 2659.07 619.135 2626.84 628.246C2594.62 637.357 2564.27 650.994 2541.23 675.393C2506.5 712.178 2480.49 756.398 2464.85 804.011C2449.21 851.625 2443.94 902.632 2450.69 952.992C2462.3 1039.68 2505.02 1114.16 2566.53 1166.73C2628.05 1219.31 2708.37 1249.97 2795.2 1249.02C2905.89 1247.82 2996.89 1197.17 3055.36 1120.54C3113.84 1043.91 3139.81 941.291 3120.45 836.143C3118.77 827.043 3116.55 817.997 3113.78 809.131C3111 800.264 3107.66 791.577 3103.75 783.193C3096.89 768.525 3089.79 753.878 3082.01 739.636C3074.22 725.394 3065.75 711.559 3056.16 698.517C3042.45 679.875 3024.21 664.383 3003.81 652.102C2983.4 639.822 2960.82 630.752 2938.41 624.956C2920.49 620.317 2902.16 617.607 2883.79 615.059C2865.42 612.51 2847.28 608.629 2828.93 606.126C2817.01 604.499 2804.75 602.664 2804.67 602.377C2802.12 593.71 2799.8 585.703 2797.65 578.018C2792.97 561.343 2789.09 546.188 2785.44 529.126C2780.1 504.201 2777.24 477.579 2762.68 457.58C2757.11 449.932 2732.22 437.255 2714.77 431.233C2674.43 417.308 2714.94 431.139 2674.31 416.949C2646.9 407.375 2612.69 396.04 2575.97 384.746ZM2946.18 681.637C2939 686.942 2931.46 691.768 2923.39 694.942C2917.95 697.081 2912.43 699.05 2906.85 700.82C2901.27 702.589 2895.62 704.158 2889.93 705.498C2856.41 713.393 2831.55 711.194 2831.27 710.618C2824.46 696.95 2817.34 666.436 2809.5 635.065C2838.66 638.302 2863.98 641.836 2889.02 646.592C2914.06 651.348 2938.8 657.327 2966.79 665.45C2960.17 670.545 2953.35 676.331 2946.18 681.637ZM2628.84 659.306C2635.35 657.258 2641.87 655.275 2648.47 653.553C2655.59 651.698 2662.75 650.026 2669.93 648.46C2677.12 646.895 2684.32 645.435 2691.54 644.002C2705.13 641.301 2722.65 638.777 2729.78 637.978C2730.32 637.918 2733.31 646.724 2736.83 660.982C2738.99 669.728 2740.98 678.516 2742.92 687.314C2744.85 696.112 2746.75 704.921 2748.73 713.709C2720.15 710.851 2696.77 707.438 2674.8 700.414C2652.83 693.389 2632.26 682.754 2609.32 665.45C2615.84 663.468 2622.33 661.354 2628.84 659.306ZM2527.88 744.265C2547.29 712.377 2568.34 691.337 2580.72 677.962C2604.22 699.682 2629.05 715.695 2656.08 726.427C2683.12 737.158 2712.37 742.608 2744.71 743.201C2794.56 744.114 2837.7 744.989 2878.02 737.267C2918.35 729.545 2955.87 713.226 2994.49 679.749C3006.67 692.564 3028.38 729.349 3047.45 768.744C3066.51 808.138 3082.94 850.141 3084.56 873.39C3086.17 896.639 3077.95 895.468 3063.83 890.138C3049.72 884.808 3029.7 875.319 3007.73 881.931C2985.76 888.543 2970.42 897.435 2955.88 905.773C2941.33 914.111 2927.58 921.894 2908.8 926.287C2888.86 930.952 2869.27 926.93 2849.66 921.743C2830.05 916.555 2810.41 910.201 2790.39 910.201C2771.73 910.201 2753.26 916.056 2734.83 921.161C2716.4 926.267 2698 930.624 2679.46 927.628C2659.51 924.404 2645.14 912.18 2629.68 899.139C2614.22 886.097 2597.66 872.237 2573.34 865.741C2549.01 859.244 2526.7 863.572 2510.57 868.6C2494.43 873.627 2484.47 879.355 2484.85 875.657C2490.7 818.89 2508.48 776.153 2527.88 744.265Z" fill="#00f955" fill-rule="nonzero" opacity="1" stroke="none"/>
<path d="M2176.46 373.213C2163.28 454.566 2176 534.275 2216 608.174C2231.13 636.132 2280.71 654.596 2298.05 615.703C2315.25 577.116 2288.87 557.115 2276.51 517.923C2254.21 447.21 2260.32 363.927 2294.01 297.633C2311.94 262.356 2342.27 225.805 2371.94 200.398C2391.76 183.425 2432.88 171.143 2439.28 139.652C2442.89 121.889 2437.73 111.808 2425.28 97.4507C2414.15 84.619 2388.76 83.9376 2375.14 91.0153C2355.77 101.087 2337.4 113.193 2320.04 126.45C2238.67 188.618 2192.46 274.512 2176.46 373.213Z" fill="#00f955" fill-rule="nonzero" opacity="1" stroke="none"/>
<path d="M2350.83 403.429C2340.99 455.384 2349.28 505.324 2374.34 553.221C2389.66 582.498 2433.21 589.936 2453.5 561.325C2471.83 535.469 2455.8 515.066 2447.14 488.825C2437.89 460.8 2439.92 426.582 2447.79 398.575C2455.82 369.99 2474.29 343.062 2497.84 325.048C2517.48 310.013 2537.31 305.018 2542.77 279.704C2549.06 250.501 2520.47 212.073 2487.48 224.128C2478.17 227.531 2469.5 232.6 2461.15 237.946C2398.75 277.909 2364.24 332.542 2350.83 403.429Z" fill="#00f955" fill-rule="nonzero" opacity="1" stroke="none"/>
</g>
</g>
</g>
</svg>
